<?xml version="1.0" standalone="no"?>
<!DOCTYPE svg PUBLIC "-//W3C//DTD SVG 20010904//EN"
 "http://www.w3.org/TR/2001/REC-SVG-20010904/DTD/svg10.dtd">
<svg version="1.0" xmlns="http://www.w3.org/2000/svg"
 width="490.000000pt" height="509.000000pt" viewBox="0 0 490.000000 509.000000"
 preserveAspectRatio="xMidYMid meet">

<g transform="translate(0.000000,509.000000) scale(0.100000,-0.100000)"
fill="#000000" stroke="none">
<path d="M2192 5075 c-280 -29 -590 -124 -841 -257 -95 -51 -203 -115 -251
-150 -329 -241 -566 -498 -744 -808 -30 -52 -68 -124 -86 -160 -17 -36 -35
-72 -40 -81 -79 -148 -186 -546 -209 -778 -14 -132 -14 -444 -1 -585 11 -109
56 -338 85 -431 39 -124 50 -155 81 -237 150 -389 402 -741 734 -1023 228
-193 514 -352 805 -446 376 -122 833 -145 1214 -63 602 130 1115 471 1489 991
29 40 52 75 52 79 0 3 10 20 23 37 118 168 258 498 320 757 123 513 98 1011
-74 1505 -100 285 -248 544 -448 783 -162 193 -322 340 -506 462 -60 40 -121
81 -135 90 -46 31 -294 148 -375 178 -369 132 -715 176 -1093 137z m106 -149
c8 -9 22 -141 16 -158 -12 -39 -101 -51 -134 -18 -16 16 -20 33 -20 94 0 72 1
75 28 85 23 9 100 7 110 -3z m125 -18 l16 -33 0 33 c1 29 4 32 31 32 l31 0 -3
-97 -3 -98 -27 -3 c-23 -3 -30 3 -45 35 l-17 38 -4 -37 c-3 -33 -7 -38 -28
-38 -24 0 -24 1 -24 100 l0 100 28 0 c22 0 32 -7 45 -32z m291 10 c3 -7 7 -52
10 -100 l6 -88 -31 0 c-22 0 -32 5 -36 20 -7 25 -20 26 -27 2 -5 -14 -14 -17
-37 -14 -29 4 -30 6 -24 41 4 20 14 62 22 94 l16 57 49 0 c30 0 50 -5 52 -12z
m-585 -75 c7 -43 15 -88 18 -100 4 -17 -1 -22 -27 -28 -17 -4 -34 -5 -36 -2
-3 3 -11 47 -18 99 -14 99 -12 108 30 108 19 0 23 -9 33 -77z m717 32 l11 -39
6 32 c6 29 10 33 34 30 16 -2 27 -8 26 -14 -1 -7 -7 -43 -13 -80 -16 -100 -17
-104 -50 -104 -26 0 -30 4 -36 38 l-7 37 -9 -27 c-7 -20 -17 -28 -32 -28 -13
0 -25 2 -27 5 -4 3 22 167 30 193 1 2 13 2 28 0 22 -2 30 -10 39 -43z m-816 5
c0 -11 -7 -20 -15 -20 -18 0 -18 1 -1 -84 8 -38 13 -73 10 -78 -3 -4 -18 -8
-34 -8 -28 0 -29 3 -45 75 -15 66 -20 75 -36 70 -18 -6 -21 -3 -23 27 -1 7 22
17 54 24 81 17 90 17 90 -6z m1011 -15 c54 -20 60 -29 53 -85 -11 -74 -33
-120 -58 -120 -40 0 -128 31 -123 43 2 7 12 44 22 82 9 39 19 76 21 83 5 16
32 15 85 -3z m-1148 -89 c26 -47 47 -87 47 -89 0 -3 -14 -10 -30 -16 -25 -8
-32 -7 -37 4 -8 22 -33 18 -33 -4 0 -18 -18 -31 -45 -31 -12 0 -23 43 -40 155
-6 39 -5 41 27 51 59 20 62 18 111 -70z m1368 18 c27 -9 49 -18 49 -19 0 -18
-16 -35 -34 -35 -34 0 -40 -12 -15 -31 25 -19 17 -43 -11 -36 -28 7 -35 -24
-11 -43 13 -9 18 -20 12 -28 -6 -11 -17 -11 -55 -1 -26 6 -50 18 -53 26 -3 7
5 39 17 71 12 31 27 69 32 85 12 32 7 31 69 11z m-1547 -16 c23 -32 20 -42
-15 -55 -28 -11 -31 -10 -39 13 -5 13 -12 24 -16 24 -10 0 3 -53 22 -97 l17
-38 6 35 c5 29 11 36 33 38 20 2 28 -2 33 -19 18 -54 -68 -110 -122 -78 -35
20 -70 121 -54 155 21 46 108 60 135 22z m1704 -78 c3 -31 4 -31 22 -15 17 15
24 16 50 5 17 -7 33 -16 36 -21 5 -9 -71 -179 -80 -179 -3 0 -16 4 -31 10 -25
9 -25 11 -10 39 22 43 19 47 -11 12 -21 -26 -28 -29 -44 -19 -16 11 -17 15 -4
51 19 54 11 59 -12 8 -20 -46 -21 -47 -52 -26 l-22 16 45 89 45 89 32 -14 c26
-10 34 -20 36 -45z m-1864 -36 c21 -41 36 -83 34 -92 -4 -21 -65 -62 -93 -62
-28 0 -45 20 -85 99 -30 61 -31 65 -14 78 33 24 48 14 83 -58 18 -38 36 -67
39 -64 3 3 -10 37 -29 76 -33 69 -33 71 -14 85 10 8 24 14 31 14 6 0 28 -34
48 -76z m-150 -94 c30 -56 35 -72 26 -87 -11 -17 -109 -78 -115 -71 -11 13
-85 152 -87 164 -4 20 93 74 120 67 10 -2 35 -35 56 -73z m2225 40 c54 -39 58
-52 31 -95 -23 -38 -38 -42 -71 -22 -17 9 -23 9 -26 0 -3 -7 -12 -22 -21 -33
-15 -18 -20 -19 -44 -8 -16 7 -28 16 -28 20 0 16 96 168 106 168 6 0 30 -14
53 -30z m-2430 -74 c10 -11 8 -16 -5 -24 -11 -6 -15 -16 -11 -26 5 -14 11 -15
27 -6 16 9 22 8 26 -5 4 -8 1 -21 -4 -28 -17 -20 1 -39 30 -32 15 4 29 2 33
-5 8 -13 -22 -50 -40 -50 -7 0 -18 -7 -25 -15 -19 -23 -24 -19 -60 38 -19 28
-44 65 -57 80 l-23 29 37 28 c44 33 56 36 72 16z m2581 -23 c14 -9 28 -22 32
-27 13 -19 9 -63 -7 -76 -8 -7 -15 -17 -15 -23 0 -22 -54 -67 -80 -67 -30 0
-90 51 -90 75 0 16 41 87 68 118 19 22 60 22 92 0z m-1005 -87 c129 -25 230
-54 335 -95 70 -28 250 -119 271 -137 8 -8 19 -14 23 -14 4 0 35 -20 67 -45
33 -25 62 -45 66 -45 9 0 129 -107 201 -180 86 -86 202 -230 242 -300 11 -19
34 -57 50 -85 289 -482 341 -1135 135 -1675 -62 -163 -134 -296 -249 -460 -58
-84 -303 -338 -361 -376 -16 -10 -55 -37 -85 -59 -62 -45 -73 -52 -150 -95
-296 -166 -679 -251 -998 -222 -196 18 -326 48 -542 127 -89 33 -262 128 -360
200 -163 118 -289 239 -401 385 -59 78 -79 107 -135 195 -26 42 -114 216 -114
227 0 4 -9 27 -20 51 -24 52 -72 207 -94 306 -28 120 -38 235 -38 421 0 181 9
287 38 412 133 590 502 1064 1027 1320 167 82 390 144 602 169 122 14 347 2
490 -25z m1134 -9 c20 -22 20 -25 6 -37 -9 -7 -21 -22 -26 -32 -9 -17 -8 -18
10 -9 11 6 23 16 26 21 11 18 42 11 58 -14 15 -22 14 -25 -16 -62 -33 -39 -26
-38 29 3 l31 23 22 -24 22 -23 -58 -47 c-32 -26 -67 -55 -79 -66 -21 -19 -21
-19 -53 13 -28 30 -30 35 -16 53 25 34 17 46 -15 22 l-30 -22 -25 24 c-14 13
-25 30 -25 37 0 15 101 162 111 163 3 0 15 -11 28 -23z m-2856 -29 c19 -24 47
-56 61 -73 31 -36 32 -40 5 -59 -20 -13 -25 -13 -52 1 l-31 16 18 -28 c17 -27
17 -28 -1 -47 -19 -19 -20 -18 -74 44 -29 35 -60 69 -67 77 -11 12 -10 17 7
34 20 20 22 20 57 4 l36 -17 -21 28 c-19 27 -19 30 -3 45 23 23 25 22 65 -25z
m-111 -155 c56 -55 61 -84 21 -125 -42 -44 -78 -38 -136 22 -52 54 -55 64 -31
100 44 66 81 67 146 3z m3182 -29 c35 -34 36 -38 21 -53 -15 -15 -17 -15 -29
2 -16 21 -22 21 -30 0 -4 -9 -1 -20 6 -24 10 -6 9 -12 -6 -26 -13 -13 -20 -15
-23 -5 -3 6 -11 12 -18 12 -21 0 -24 -23 -7 -43 14 -16 14 -19 2 -27 -8 -6
-19 -10 -23 -10 -9 0 -77 66 -77 75 0 8 133 135 141 135 3 0 23 -16 43 -36z
m-3307 -100 c71 -65 72 -66 56 -90 -8 -13 -20 -24 -25 -24 -6 0 -29 18 -52 39
-22 22 -54 50 -70 63 -28 24 -29 25 -11 51 9 15 20 27 24 27 3 0 39 -30 78
-66z m3411 -16 c42 -54 40 -87 -5 -108 -18 -8 -33 -19 -33 -25 0 -13 -50 -55
-66 -55 -7 0 -19 10 -25 22 -10 19 -8 25 21 51 40 36 33 47 -8 12 -37 -31 -42
-31 -64 0 l-18 24 73 60 c39 33 77 60 82 61 6 0 25 -19 43 -42z m-3529 3 c9
-6 11 -16 7 -27 -6 -15 6 -31 51 -70 58 -52 58 -52 39 -73 -11 -12 -22 -21
-27 -21 -4 0 -33 21 -63 46 -47 37 -59 44 -71 34 -12 -10 -18 -10 -30 0 -12
10 -8 20 28 65 46 59 46 59 66 46z m3630 -137 c26 -34 26 -42 -1 -72 l-23 -25
33 17 c19 10 35 16 36 14 1 -2 12 -19 24 -38 l21 -36 -78 -52 c-43 -29 -82
-52 -87 -52 -9 0 -38 40 -32 44 56 38 69 60 18 31 -33 -19 -38 -19 -45 6 -5
14 0 29 17 46 l23 26 -32 -19 c-32 -18 -33 -18 -48 1 -8 11 -15 23 -15 27 0 7
150 107 162 108 4 0 16 -12 27 -26z m-3660 -54 c34 -22 61 -46 61 -53 -1 -28
-20 -42 -52 -38 -32 3 -32 2 -16 -16 11 -12 15 -27 11 -41 -6 -25 -25 -29 -43
-7 -7 8 -16 15 -21 15 -7 0 -52 29 -118 77 -2 1 4 13 12 27 15 22 20 24 49 16
41 -12 47 -6 14 15 -30 20 -32 28 -10 49 18 18 21 17 113 -44z m-170 -103 c7
-10 7 -17 0 -24 -6 -6 -8 -16 -5 -22 9 -14 36 -14 36 -1 0 6 9 10 21 10 17 0
20 -4 15 -24 -8 -32 10 -43 35 -20 15 13 22 15 31 6 9 -9 7 -23 -10 -57 -12
-25 -27 -45 -33 -45 -12 0 -122 61 -152 84 -18 14 -18 16 -1 48 30 60 43 69
63 45z m3970 -71 c24 -43 22 -66 -4 -66 -8 0 -18 7 -23 16 -13 23 -33 8 -26
-20 8 -32 -22 -43 -37 -15 -14 27 -34 10 -34 -29 0 -45 -28 -37 -56 18 -19 35
-23 52 -15 57 20 13 160 83 166 83 3 0 16 -20 29 -44z m-3986 -93 c39 -27 75
-51 79 -54 5 -3 -1 -27 -14 -53 -25 -53 -13 -52 -140 -18 -37 10 -70 21 -73
24 -3 3 -1 17 5 32 10 26 13 27 53 21 l42 -7 -30 23 c-16 12 -31 24 -33 25 -6
4 22 54 31 54 5 0 41 -21 80 -47z m4047 -31 c0 -8 -10 -22 -22 -32 -30 -24
-17 -36 15 -15 24 15 26 15 36 -4 6 -11 11 -24 11 -29 0 -4 -39 -28 -87 -52
-82 -41 -87 -42 -100 -25 -19 27 -16 39 13 69 l27 26 -37 -15 c-36 -15 -36
-15 -48 10 -6 14 -9 27 -7 29 2 2 42 22 89 44 77 37 86 39 98 24 6 -9 12 -22
12 -30z m-4177 -121 c-7 -26 15 -37 31 -15 17 23 46 12 39 -14 -8 -31 17 -38
37 -11 15 19 21 21 33 11 13 -11 13 -18 -2 -57 -9 -24 -20 -47 -23 -51 -7 -6
-164 51 -181 66 -4 3 -1 22 6 41 8 19 17 42 20 52 9 26 47 5 40 -22z m4256
-56 c12 -31 21 -62 21 -69 0 -21 -28 -27 -39 -9 -8 15 -15 14 -81 -6 -39 -13
-73 -21 -74 -19 -11 12 -27 51 -23 55 3 2 36 16 73 31 60 23 69 30 66 50 -3
16 2 22 17 22 15 0 25 -14 40 -55z m-4271 -73 c9 -9 25 -16 34 -14 9 2 32 -4
51 -12 34 -14 35 -16 24 -45 -11 -29 -11 -30 -45 -15 -39 16 -52 18 -52 6 0
-5 18 -14 40 -21 36 -10 40 -15 34 -34 -11 -37 -21 -42 -62 -28 -81 27 -142
54 -142 61 0 17 42 105 53 112 20 13 46 9 65 -10z m4337 -119 c5 -21 1 -31
-22 -49 l-28 -24 32 6 c28 6 34 3 42 -17 11 -30 9 -31 -98 -58 -86 -23 -94
-21 -105 15 -5 17 1 26 26 43 l33 22 -36 -7 c-33 -5 -37 -4 -41 21 -6 30 7 38
107 60 83 18 82 18 90 -12z m-4368 -60 c7 -8 10 -28 7 -42 -5 -25 -2 -28 33
-37 33 -8 38 -12 35 -34 -6 -42 -17 -44 -109 -20 -48 13 -91 25 -95 27 -7 3
15 81 32 113 10 19 17 21 48 15 21 -3 42 -13 49 -22z m4413 -117 c0 -13 3 -38
6 -55 6 -26 4 -31 -14 -31 -12 0 -22 8 -25 21 -7 25 -32 20 -32 -7 0 -23 -33
-31 -41 -10 -3 9 -14 16 -24 16 -14 0 -18 -7 -17 -27 2 -22 -3 -29 -19 -31
-19 -3 -22 3 -29 53 -3 31 -5 59 -2 61 2 3 33 9 68 15 35 6 65 12 68 15 2 2
17 4 33 4 23 0 28 -4 28 -24z m-4510 -128 l0 -32 28 27 c30 29 79 36 100 15
20 -20 15 -95 -8 -118 -26 -26 -70 -27 -70 -1 0 33 11 51 34 52 16 1 17 2 4 6
-11 3 -30 -9 -52 -31 -35 -37 -54 -43 -87 -26 -40 22 -17 140 28 140 19 0 23
-5 23 -32z m4537 -35 c6 -38 8 -71 6 -75 -8 -14 -43 -8 -43 7 0 17 -16 18
-100 6 -59 -9 -70 -3 -70 36 0 19 9 23 77 35 54 10 78 18 79 28 2 27 4 30 22
30 15 0 21 -12 29 -67z m-4542 -114 c13 -19 -4 -59 -25 -59 -11 0 -20 -4 -20
-10 0 -5 13 -10 30 -10 16 0 29 3 29 8 -1 4 -1 22 0 40 l1 32 54 0 54 0 0 -57
c-1 -45 -5 -61 -24 -79 -19 -20 -29 -23 -76 -17 -87 9 -103 20 -106 75 -2 37
1 51 17 67 23 23 56 28 66 10z m4555 -22 c0 -32 -2 -34 -47 -44 -48 -10 -48
-10 -11 -12 57 -2 68 -9 68 -46 0 -32 -1 -33 -52 -41 l-53 -8 49 -6 c44 -4 51
-8 57 -33 10 -38 -1 -41 -108 -30 l-88 8 0 45 c0 42 2 45 28 48 37 5 34 20 -5
24 -31 3 -33 6 -36 44 l-3 42 68 16 c37 8 79 17 93 19 14 3 28 5 33 6 4 0 7
-14 7 -32z m-4458 -174 c26 -23 25 -96 -2 -123 -17 -17 -33 -20 -100 -20 l-80
0 0 35 0 35 80 0 c47 0 80 4 80 10 0 6 -33 10 -80 10 l-80 0 0 35 0 35 82 0
c62 0 86 -4 100 -17z m4452 -99 c20 -19 21 -93 3 -118 -11 -15 -26 -18 -88
-17 -88 2 -104 13 -104 75 0 65 14 76 101 76 53 0 77 -4 88 -16z m-4430 -91
c8 -31 -5 -43 -51 -43 -18 0 -33 -5 -33 -11 0 -6 15 -8 44 -4 43 7 43 7 49
-27 2 -18 3 -35 1 -37 -2 -2 -48 -6 -103 -9 l-99 -5 -7 51 c-4 31 -2 58 4 71
14 25 56 38 74 22 8 -6 17 -7 23 -2 10 10 39 18 70 20 16 1 24 -7 28 -26z
m4435 -89 c9 -8 -12 -116 -25 -129 -17 -16 -60 -20 -68 -7 -3 5 -30 7 -59 4
-60 -5 -73 4 -62 45 5 23 9 25 45 19 21 -3 41 -2 45 3 3 5 -15 13 -40 16 -48
8 -48 8 -38 43 6 23 7 24 102 17 53 -4 98 -9 100 -11z m-4420 -87 c10 -27 18
-114 10 -121 -2 -3 -45 -10 -93 -16 -72 -9 -91 -8 -97 2 -13 21 -11 126 3 134
17 11 76 22 126 23 36 1 44 -3 51 -22z m4306 -82 c44 -8 81 -14 83 -15 4 0 2
-38 -4 -53 -3 -9 -15 -13 -32 -10 -26 4 -26 4 -8 -11 11 -9 23 -16 28 -16 11
0 10 -31 -1 -49 -7 -11 -16 -9 -49 9 -37 21 -46 22 -94 12 -29 -5 -54 -9 -56
-7 -2 2 0 19 3 39 6 27 12 36 29 37 17 1 17 2 4 6 -13 3 -18 15 -18 39 0 40 0
40 115 19z"/>
<path d="M2225 4848 c10 -72 24 -96 25 -41 0 23 -4 44 -9 47 -5 3 -7 15 -4 26
3 12 0 20 -7 20 -9 0 -10 -14 -5 -52z"/>
<path d="M2650 4824 c0 -14 4 -23 9 -20 5 3 7 15 4 26 -7 28 -13 25 -13 -6z"/>
<path d="M3012 4809 c-14 -37 -22 -100 -12 -94 11 7 34 104 26 112 -3 3 -9 -5
-14 -18z"/>
<path d="M1820 4770 c0 -8 5 -22 10 -30 9 -13 10 -13 10 0 0 8 -5 22 -10 30
-9 13 -10 13 -10 0z"/>
<path d="M1302 4583 c30 -65 52 -103 59 -103 5 0 9 3 9 6 0 13 -55 104 -63
104 -5 0 -7 -3 -5 -7z"/>
<path d="M3596 4554 c-4 -10 -1 -14 6 -12 15 5 23 28 10 28 -5 0 -13 -7 -16
-16z"/>
<path d="M3731 4458 c-40 -63 -52 -88 -44 -88 8 0 73 93 73 104 0 14 -16 4
-29 -16z"/>
<path d="M2514 4229 c-28 -30 -29 -33 -27 -122 3 -89 14 -222 33 -377 5 -41
12 -124 16 -185 l7 -110 -27 24 c-14 14 -26 28 -26 32 0 5 -28 46 -62 92 -35
46 -89 119 -121 163 -140 191 -168 229 -180 236 -6 4 -31 8 -54 8 -32 0 -45
-5 -53 -19 -23 -43 -8 -127 48 -266 11 -27 30 -75 42 -105 12 -30 59 -132 106
-227 46 -94 84 -174 84 -178 0 -12 -116 53 -239 134 -29 20 -60 41 -70 46 -39
25 -106 70 -111 76 -10 12 -105 59 -120 59 -9 0 -26 -7 -38 -16 -49 -34 -21
-101 99 -231 54 -59 227 -213 240 -213 5 0 9 -4 9 -10 0 -5 -7 -10 -15 -10
-13 0 -15 -33 -15 -235 l0 -235 50 0 49 0 3 98 c2 53 6 90 9 82 3 -8 17 -51
31 -95 l24 -80 51 -3 52 -3 3 43 3 43 16 -50 c9 -27 22 -68 27 -90 6 -22 27
-66 47 -99 19 -32 35 -60 35 -62 0 -2 -304 -4 -675 -4 l-675 0 0 -460 0 -460
1370 0 1370 0 0 460 0 460 -293 0 c-162 0 -297 3 -300 6 -4 4 6 21 21 38 15
18 38 47 52 65 14 19 32 42 40 52 8 10 23 30 33 43 13 19 28 26 60 28 l42 3 5
50 c4 44 11 56 46 88 l41 37 7 -52 c4 -28 13 -63 21 -78 15 -29 77 -60 121
-60 38 0 88 24 111 54 28 35 39 165 26 286 -10 87 -10 90 18 146 34 68 36 83
8 118 -17 22 -28 26 -71 26 -44 0 -66 -9 -182 -75 l-132 -75 -107 0 -107 0 0
-40 c0 -52 -21 -53 -69 -2 -24 25 -43 61 -58 108 -32 97 -31 116 6 799 8 152
3 198 -27 228 -45 45 -108 -15 -136 -128 -7 -33 -39 -157 -70 -275 -31 -118
-58 -226 -62 -240 -13 -54 -15 -56 -29 -30 -13 26 -65 228 -110 430 -14 63
-34 144 -44 180 -11 36 -22 78 -26 94 -8 39 -66 96 -97 96 -14 0 -37 -13 -54
-31z m379 -1109 c154 -58 234 -246 168 -397 -13 -29 -29 -57 -35 -62 -11 -9
-89 61 -365 327 l-76 73 28 22 c74 58 185 72 280 37z m-147 -285 c104 -99 196
-188 207 -198 26 -26 18 -38 -44 -70 -49 -25 -62 -28 -134 -24 -61 3 -90 9
-120 27 -65 38 -112 88 -140 152 -23 52 -26 70 -23 132 5 71 40 171 58 164 5
-2 93 -84 196 -183z m-550 101 c8 -8 14 -32 13 -53 l-1 -38 -19 40 c-27 59
-25 82 7 51z m1544 -172 c0 -114 -2 -125 -17 -122 -16 3 -18 18 -21 112 -2 94
0 110 15 122 10 7 19 14 21 14 1 0 2 -57 2 -126z m-673 -569 c55 -33 72 -66
75 -151 l3 -69 -81 -3 -82 -3 -4 65 c-4 71 -9 82 -33 72 -13 -5 -15 -33 -13
-218 3 -205 4 -213 23 -213 18 0 20 8 23 68 2 55 0 67 -13 67 -11 0 -15 12
-15 50 l0 50 100 0 100 0 0 -170 0 -170 -51 0 c-37 0 -56 5 -65 18 -13 16 -15
16 -28 -1 -39 -50 -154 -40 -206 19 -16 19 -32 45 -35 57 -4 13 -5 122 -3 244
3 220 3 222 28 249 48 51 79 64 159 64 61 0 82 -4 118 -25z m417 11 c55 -23
76 -59 76 -132 l0 -64 -75 0 -75 0 0 38 c0 45 -13 67 -34 59 -17 -7 -23 -71
-8 -94 4 -7 37 -31 72 -54 114 -73 140 -115 140 -225 0 -107 -38 -155 -135
-174 -44 -8 -73 -8 -109 0 -97 21 -136 74 -136 181 l0 59 80 0 80 0 0 -59 c0
-35 5 -63 13 -69 28 -24 52 24 42 82 -6 30 -19 43 -91 91 -105 71 -129 107
-129 195 0 81 18 124 64 156 30 20 47 24 114 24 43 0 92 -6 111 -14z m-1727
-19 c63 -34 68 -56 68 -307 0 -204 -2 -228 -19 -257 -11 -17 -30 -36 -43 -42
-14 -6 -89 -11 -178 -11 l-155 0 0 321 0 321 148 -4 c116 -3 154 -7 179 -21z
m422 5 c61 -30 76 -62 76 -159 0 -80 -1 -86 -28 -109 l-28 -24 28 -24 c28 -24
28 -25 31 -165 l4 -141 -81 0 -81 0 0 124 c0 132 -4 156 -26 156 -11 0 -14
-29 -16 -137 l-3 -138 -87 -3 -88 -3 0 321 0 320 133 0 c106 0 139 -3 166 -18z
m311 -250 c0 -148 3 -271 6 -275 3 -3 12 -3 20 0 12 4 14 53 14 274 l0 269 85
0 85 0 0 -267 c0 -259 -1 -269 -23 -307 -31 -55 -82 -79 -167 -79 -76 0 -131
22 -163 65 -26 35 -34 119 -36 376 l-2 212 91 0 90 0 0 -268z"/>
<path d="M2710 3063 c-50 -6 -63 -23 -18 -23 20 0 40 -4 43 -10 11 -18 25 -10
25 15 0 14 -3 24 -7 23 -5 0 -24 -3 -43 -5z"/>
<path d="M2810 3046 c0 -19 48 -30 66 -15 24 20 16 29 -26 29 -28 0 -40 -4
-40 -14z"/>
<path d="M2975 2878 c-4 -15 -4 -32 0 -37 3 -6 2 -11 -4 -11 -6 0 -15 9 -21
20 -6 11 -15 20 -21 20 -6 0 -1 -14 11 -30 l22 -31 -27 7 c-20 5 -26 4 -21 -5
4 -6 13 -11 21 -11 7 0 15 -4 17 -9 4 -11 22 -14 58 -11 15 1 19 4 11 7 -10 4
-5 10 15 19 l29 14 -27 -4 c-30 -3 -38 8 -13 18 8 3 15 13 15 22 0 16 -2 16
-20 -1 -19 -17 -20 -17 -20 1 0 10 -4 26 -9 33 -8 12 -11 9 -16 -11z"/>
<path d="M2566 2888 c-4 -29 -9 -83 -12 -120 l-6 -68 32 0 32 0 -6 73 c-9 116
-17 167 -26 167 -4 0 -11 -24 -14 -52z"/>
<path d="M2630 2822 c0 -37 22 -59 39 -38 19 23 10 61 -16 64 -19 3 -23 -1
-23 -26z"/>
<path d="M2642 2714 c-11 -12 -10 -15 3 -20 21 -8 29 1 18 19 -7 13 -10 13
-21 1z"/>
<path d="M2687 2663 c-6 -10 90 -9 100 0 3 4 -17 7 -45 7 -28 0 -53 -3 -55 -7z"/>
<path d="M2693 2624 c-7 -3 -13 -11 -13 -18 0 -9 22 -14 76 -15 68 -2 75 0 72
16 -3 15 -14 18 -63 20 -33 1 -66 -1 -72 -3z"/>
<path d="M2863 2622 c-24 -4 -30 -17 -12 -27 13 -9 59 3 59 14 0 12 -20 18
-47 13z"/>
<path d="M1608 1895 c-2 -108 0 -202 3 -207 4 -6 14 -8 23 -5 15 6 16 30 14
204 -3 177 -5 198 -20 201 -16 3 -17 -14 -20 -193z"/>
<path d="M2060 2026 c0 -36 4 -66 9 -66 20 0 32 31 29 77 -2 36 -7 49 -20 51
-16 3 -18 -5 -18 -62z"/>
<path d="M1125 3023 c-40 -22 -53 -40 -60 -88 -10 -62 17 -118 73 -154 71 -45
92 -68 92 -100 0 -31 -22 -57 -40 -46 -5 3 -10 26 -10 51 l0 44 -55 0 -55 0 0
-45 c0 -63 17 -92 67 -116 34 -16 55 -20 89 -15 83 11 114 47 114 132 0 82
-21 112 -129 179 -25 16 -31 27 -31 63 0 27 4 33 18 30 11 -2 18 -14 20 -36 3
-32 4 -32 58 -32 l54 0 0 34 c0 57 -15 82 -59 100 -52 20 -107 20 -146 -1z"/>
<path d="M1415 3008 c-14 -63 -55 -377 -55 -425 0 -21 4 -23 59 -23 l60 0 3
43 c2 34 7 42 23 42 15 0 21 -10 28 -42 l8 -43 60 0 59 0 -6 43 c-3 23 -17
110 -30 194 -13 83 -24 163 -24 177 0 52 -6 56 -96 56 -79 0 -84 -1 -89 -22z
m104 -231 c1 -39 -2 -48 -15 -45 -19 4 -18 0 -9 83 7 59 10 65 16 40 3 -16 7
-52 8 -78z"/>
<path d="M1624 3014 c3 -8 15 -50 26 -93 11 -43 26 -94 35 -114 10 -25 15 -70
15 -142 l0 -105 60 0 60 0 0 88 c0 84 6 113 59 297 11 39 21 73 21 78 0 4 -24
7 -54 7 l-53 0 -12 -75 c-7 -41 -16 -75 -21 -75 -5 0 -12 26 -15 58 -11 94 -9
92 -72 92 -46 0 -54 -3 -49 -16z"/>
<path d="M840 4223 c0 -10 83 -93 93 -93 3 0 4 6 1 13 -6 17 -94 91 -94 80z"/>
<path d="M4180 4040 c-13 -8 -13 -10 2 -10 9 0 20 5 23 10 8 13 -5 13 -25 0z"/>
<path d="M280 3296 c0 -2 7 -6 15 -10 8 -3 15 -1 15 4 0 6 -7 10 -15 10 -8 0
-15 -2 -15 -4z"/>
<path d="M230 3131 c0 -10 30 -24 37 -17 3 3 2 9 -2 15 -8 13 -35 15 -35 2z"/>
<path d="M180 2890 c0 -5 7 -10 16 -10 8 0 12 5 9 10 -3 6 -10 10 -16 10 -5 0
-9 -4 -9 -10z"/>
<path d="M240 2700 c-11 -7 -7 -10 18 -10 17 0 32 5 32 10 0 13 -30 13 -50 0z"/>
<path d="M4610 2420 c20 -13 120 -13 120 0 0 6 -29 10 -67 10 -48 0 -64 -3
-53 -10z"/>
<path d="M170 2340 c-12 -8 -11 -10 8 -10 12 0 22 5 22 10 0 13 -11 13 -30 0z"/>
<path d="M4675 2230 c3 -5 13 -10 21 -10 8 0 14 5 14 10 0 6 -9 10 -21 10 -11
0 -17 -4 -14 -10z"/>
<path d="M203 2163 c-13 -2 -23 -9 -23 -14 0 -11 79 -3 115 12 22 8 -50 10
-92 2z"/>
</g>
</svg>
